<svg width="35" height="35" viewBox="0 0 35 35" fill="none" xmlns="http://www.w3.org/2000/svg">
<path d="M27.8223 0H7.17773C3.21993 0 0 3.21993 0 7.17773V27.8223C0 31.7801 3.21993 35 7.17773 35H27.8223C31.7801 35 35 31.7801 35 27.8223V7.17773C35 3.21993 31.7801 0 27.8223 0ZM18.5037 6.92371C20.0668 4.86356 22.2398 4.85352 22.2398 4.85352C22.2398 4.85352 22.563 6.79034 21.0102 8.65621C19.3522 10.6485 17.4676 10.3225 17.4676 10.3225C17.4676 10.3225 17.1138 8.7556 18.5037 6.92371ZM21.9303 28.6076C20.5404 28.6076 19.4599 27.671 17.9954 27.671C16.503 27.671 15.022 28.6426 14.0576 28.6426C11.2943 28.6426 7.80329 22.6609 7.80329 17.8526C7.80329 13.1219 10.7582 10.6402 13.5298 10.6402C15.3316 10.6402 16.7298 11.6793 17.6665 11.6793C18.4706 11.6793 19.9629 10.574 21.9055 10.574C25.2493 10.574 26.5647 12.9533 26.5647 12.9533C26.5647 12.9533 23.992 14.2687 23.992 17.4604C23.992 21.0609 27.1968 22.3018 27.1968 22.3018C27.1968 22.3018 24.9564 28.6076 21.9303 28.6076Z" fill="black"/>
</svg>
