<svg width="120" height="120" viewBox="0 0 120 120" fill="none" xmlns="http://www.w3.org/2000/svg">
<rect width="120" height="120" rx="40" fill="#5050CE" fill-opacity="0.6"/>
<path d="M41.3398 46.9609C41.3398 57.332 49.9351 65.7695 60.5 65.7695C71.0649 65.7695 79.6602 57.332 79.6602 46.9609C79.6602 36.5899 71.0649 28.1523 60.5 28.1523C49.9351 28.1523 41.3398 36.5899 41.3398 46.9609ZM75.4023 46.9609C75.4023 55.0273 68.7172 61.5898 60.5 61.5898C52.2828 61.5898 45.5977 55.0273 45.5977 46.9609C45.5977 38.8946 52.2828 32.332 60.5 32.332C68.7172 32.332 75.4023 38.8946 75.4023 46.9609Z" fill="white"/>
<path d="M99.6719 27.3164C100.848 27.3164 101.801 26.3808 101.801 25.2266C101.801 24.0724 100.848 23.1367 99.6719 23.1367C98.4961 23.1367 97.543 24.0724 97.543 25.2266C97.543 26.3808 98.4961 27.3164 99.6719 27.3164Z" fill="white"/>
<path d="M60.5 113C90.71 113 115 88.9821 115 59.5C115 49.6842 112.274 40.0887 107.116 31.7506C106.506 30.7642 105.197 30.4501 104.192 31.0489C103.187 31.648 102.867 32.9333 103.477 33.9199C108.23 41.604 110.742 50.4495 110.742 59.5C110.742 73.8004 104.617 87.0642 93.8225 96.424C90.5363 81.208 76.7921 69.9492 60.5 69.9492C44.2079 69.9492 30.4622 81.2093 27.1794 96.4259C16.3835 87.065 10.2578 73.8006 10.2578 59.5C10.2578 32.3047 32.7963 10.1797 60.5 10.1797C71.7809 10.1797 82.4343 13.7565 91.3087 20.5236C92.2371 21.2316 93.5747 21.0665 94.296 20.1551C95.0172 19.2438 94.8493 17.9307 93.9206 17.2227C84.2924 9.88063 72.7357 6 60.5 6C45.9306 6 32.2413 11.5623 21.9534 21.6621C11.6657 31.7615 6 45.1992 6 59.5C6 89.0565 30.3672 113 60.5 113V113ZM60.5 74.1289C75.5507 74.1289 88.044 84.9209 90.0326 99.4175C81.4201 105.573 71.2359 108.82 60.5 108.82C49.7652 108.82 39.5822 105.572 30.9697 99.4169C32.9556 84.9204 45.4476 74.1289 60.5 74.1289V74.1289Z" fill="white"/>
</svg>
