<svg width="35" height="35" viewBox="0 0 35 35" fill="none" xmlns="http://www.w3.org/2000/svg">
<path d="M35 17.5C35 27.1651 27.1651 35 17.5 35C7.83489 35 0 27.1651 0 17.5C0 7.83489 7.83489 0 17.5 0C27.1651 0 35 7.83489 35 17.5Z" fill="#4A7AFF"/>
<path d="M18.268 34.9821C27.5767 34.5802 35.0001 26.9074 35.0001 17.5C35.0001 17.4319 34.9982 17.3641 34.9974 17.296L22.85 5.14832L9.86169 18.7241L17.0781 25.9405L13.7507 30.4648L18.268 34.9821Z" fill="#0053BF"/>
<path d="M22.8499 5.14829V9.111C22.8499 9.111 18.3002 8.45064 18.3002 11.3858V14.321H22.4095L21.896 18.7972H18.3002V30.4648H13.7506V18.7972L9.86133 18.7238V14.321H13.6772V10.9455C13.6772 10.9455 13.4254 5.92401 18.3737 5.00169C20.4285 4.61851 22.8499 5.14829 22.8499 5.14829Z" fill="white"/>
<path d="M22.8498 9.111V5.14829C22.8498 5.14829 20.4284 4.61851 18.3736 5.00169C18.0526 5.06151 17.7541 5.13894 17.4756 5.23054V30.4648H18.3002V18.7972H21.8957L22.4095 14.321H18.3002C18.3002 14.321 18.3002 14.321 18.3002 11.3858C18.3002 8.45064 22.8498 9.111 22.8498 9.111Z" fill="#DCE1EB"/>
</svg>
