<svg width="35" height="35" viewBox="0 0 35 35" fill="none" xmlns="http://www.w3.org/2000/svg">
<path d="M33.6809 14.4572H19.4036C18.774 14.4572 18.2644 14.9668 18.2644 15.5963V20.1606C18.2644 20.7901 18.774 21.2998 19.4036 21.2998H27.4454C26.5685 23.5856 24.9197 25.4968 22.8286 26.7109L26.2537 32.6467C31.7473 29.4689 35 23.8854 35 17.6424C35 16.7505 34.9325 16.1135 34.8051 15.4015C34.7002 14.8544 34.228 14.4572 33.6809 14.4572Z" fill="#167EE6"/>
<path d="M17.5 28.1499C13.5653 28.1499 10.1327 25.9989 8.28904 22.8212L2.35327 26.2387C5.37362 31.4775 11.0321 35 17.5 35C20.6777 35 23.6681 34.1456 26.2537 32.6541V32.6466L22.8287 26.7109C21.2548 27.6252 19.4411 28.1499 17.5 28.1499Z" fill="#12B347"/>
<path d="M26.2463 32.6542V32.6467L22.8212 26.7109C21.2548 27.6178 19.4411 28.1499 17.5 28.1499V35C20.6777 35 23.6681 34.1456 26.2463 32.6542Z" fill="#0F993E"/>
<path d="M6.85011 17.4999C6.85011 15.5588 7.38223 13.7451 8.28909 12.1787L2.35332 8.76117C0.854391 11.3318 0 14.3147 0 17.4999C0 20.6852 0.854391 23.668 2.35332 26.2387L8.28909 22.8211C7.37474 21.2547 6.85011 19.441 6.85011 17.4999Z" fill="#FFD500"/>
<path d="M17.5001 6.85011C20.0633 6.85011 22.4241 7.76445 24.2603 9.27837C24.7174 9.6531 25.377 9.62312 25.7892 9.21092L29.0194 5.98073C29.4915 5.50856 29.4541 4.73662 28.9519 4.30193C25.8716 1.61884 21.862 0 17.5001 0C11.0322 0 5.37374 3.52248 2.35339 8.76124L8.28916 12.1788C10.1328 9.00107 13.5654 6.85011 17.5001 6.85011Z" fill="#FF4B26"/>
<path d="M24.2602 9.27837C24.7174 9.6531 25.3769 9.62313 25.7891 9.21092L29.0193 5.98073C29.4914 5.50857 29.454 4.73662 28.9518 4.30193C25.8715 1.61884 21.8619 0 17.5 0V6.85011C20.0632 6.85011 22.424 7.75696 24.2602 9.27837Z" fill="#D93F21"/>
</svg>
